<svg xmlns="http://www.w3.org/2000/svg" viewBox="0 0 168 168" width="32" height="32">
  <circle cx="84" cy="84" r="84" fill="#1DB954" />

  <!-- Top wave: slightly larger, shifted upward -->
  <path fill="#000000" d="M38 54c28-7 76-5 100 14 3 2 4 6 2 8-2 3-6 3-9 1-23-16-63-18-91-11-3 1-6-1-7-4s1-6 5-8z" />

  <!-- Middle wave: slightly larger, shifted upward -->
  <path fill="#000000" d="M42 75c24-6 62-3 84 12 3 2 4 5 2 8s-6 3-9 1c-19-12-52-13-74-9-3 1-6 0-7-3s1-6 4-9z" />

  <!-- Bottom wave: slightly larger, shifted upward -->
  <path fill="#000000" d="M48 97c19-4 48-2 66 9 3 2 4 5 3 7s-5 4-8 2c-16-8-39-10-56-6-3 1-5-1-6-4s1-6 4-8z" />
</svg>
